<svg width="145" height="36" viewBox="0 0 145 36" fill="none" xmlns="http://www.w3.org/2000/svg">
<path d="M3.60012 34.992C2.44812 34.992 1.61612 34.832 1.10412 34.512C0.592121 34.16 0.272121 33.712 0.144121 33.168C0.0481212 32.592 0.000121117 31.984 0.000121117 31.344V3.696C0.000121117 3.056 0.0641211 2.464 0.192121 1.92C0.320121 1.376 0.640121 0.944 1.15212 0.624001C1.66412 0.271999 2.49612 0.0959988 3.64812 0.0959988C4.83212 0.0959988 5.66412 0.271999 6.14412 0.624001C6.65612 0.976 6.96012 1.424 7.05612 1.968C7.18412 2.512 7.24812 3.104 7.24812 3.744V13.536C7.82412 12.928 8.56012 12.352 9.45612 11.808C10.3841 11.264 11.4721 10.992 12.7201 10.992C14.7041 10.992 16.4801 11.504 18.0481 12.528C19.6481 13.52 20.9121 14.896 21.8401 16.656C22.8001 18.416 23.2801 20.432 23.2801 22.704V31.392C23.2801 32.032 23.2161 32.624 23.0881 33.168C22.9601 33.712 22.6561 34.16 22.1761 34.512C21.6961 34.832 20.8481 34.992 19.6321 34.992C18.5121 34.992 17.6801 34.832 17.1361 34.512C16.6241 34.16 16.3041 33.712 16.1761 33.168C16.0801 32.592 16.0321 31.984 16.0321 31.344V22.656C16.0321 21.728 15.8721 20.944 15.5521 20.304C15.2321 19.632 14.7521 19.104 14.1121 18.72C13.5041 18.336 12.7521 18.144 11.8561 18.144C10.6721 18.144 9.63212 18.512 8.73612 19.248C7.87212 19.952 7.37612 20.816 7.24812 21.84V31.392C7.24812 32.032 7.18412 32.624 7.05612 33.168C6.92812 33.712 6.60812 34.16 6.09612 34.512C5.61612 34.832 4.78412 34.992 3.60012 34.992ZM37.0902 34.944C35.6182 34.944 34.2262 34.656 32.9142 34.08C31.6342 33.504 30.5142 32.704 29.5542 31.68C28.5942 30.624 27.8422 29.392 27.2982 27.984C26.7862 26.544 26.5302 24.976 26.5302 23.28V14.592C26.5302 13.952 26.5942 13.36 26.7222 12.816C26.8502 12.272 27.1542 11.824 27.6342 11.472C28.1462 11.12 28.9942 10.944 30.1782 10.944C31.3622 10.944 32.1942 11.12 32.6742 11.472C33.1862 11.824 33.4902 12.288 33.5862 12.864C33.7142 13.408 33.7782 14 33.7782 14.64V23.28C33.7782 24.208 33.9382 25.024 34.2582 25.728C34.6102 26.4 35.1062 26.912 35.7462 27.264C36.4182 27.616 37.2022 27.792 38.0982 27.792C39.0262 27.792 39.8102 27.616 40.4502 27.264C41.1222 26.88 41.6342 26.352 41.9862 25.68C42.3702 25.008 42.5622 24.208 42.5622 23.28V14.544C42.5622 13.904 42.6262 13.312 42.7542 12.768C42.8822 12.224 43.1862 11.792 43.6662 11.472C44.1782 11.12 45.0262 10.944 46.2102 10.944C47.3942 10.944 48.2262 11.12 48.7062 11.472C49.2182 11.824 49.5222 12.288 49.6182 12.864C49.7462 13.408 49.8102 13.984 49.8102 14.592V31.488C49.8102 32.096 49.7462 32.672 49.6182 33.216C49.5222 33.728 49.2182 34.144 48.7062 34.464C48.1942 34.784 47.3622 34.944 46.2102 34.944C45.3462 34.944 44.6742 34.848 44.1942 34.656C43.7142 34.464 43.3622 34.224 43.1382 33.936C42.9142 33.648 42.7702 33.344 42.7062 33.024C42.6742 32.704 42.6582 32.416 42.6582 32.16L43.2822 31.632C43.1862 31.76 42.9782 32 42.6582 32.352C42.3382 32.704 41.9062 33.088 41.3622 33.504C40.8502 33.888 40.2422 34.224 39.5382 34.512C38.8342 34.8 38.0182 34.944 37.0902 34.944ZM66.4936 34.944C64.9256 34.944 63.5336 34.624 62.3176 33.984C61.1336 33.312 60.1416 32.416 59.3416 31.296C58.5736 30.176 57.9816 28.896 57.5656 27.456C57.1816 26.016 57.0056 24.48 57.0376 22.848C57.0376 21.28 57.2456 19.776 57.6616 18.336C58.0776 16.896 58.6696 15.632 59.4376 14.544C60.2376 13.456 61.2136 12.608 62.3656 12C63.5496 11.36 64.9256 11.04 66.4936 11.04C67.9016 11.04 69.2616 11.36 70.5736 12C71.9176 12.64 73.1016 13.52 74.1256 14.64C75.1496 15.728 75.9496 16.992 76.5256 18.432C77.1336 19.84 77.4376 21.328 77.4376 22.896C77.4376 24.528 77.1336 26.08 76.5256 27.552C75.9496 28.992 75.1496 30.272 74.1256 31.392C73.1016 32.512 71.9336 33.392 70.6216 34.032C69.3096 34.64 67.9336 34.944 66.4936 34.944ZM65.4856 27.84C66.3816 27.84 67.1816 27.632 67.8856 27.216C68.5896 26.768 69.1496 26.176 69.5656 25.44C70.0136 24.704 70.2376 23.888 70.2376 22.992C70.2376 22.064 70.0296 21.248 69.6136 20.544C69.1976 19.808 68.6376 19.232 67.9336 18.816C67.2296 18.4 66.4296 18.192 65.5336 18.192C64.6696 18.192 63.8696 18.4 63.1336 18.816C62.4296 19.232 61.8696 19.808 61.4536 20.544C61.0696 21.248 60.8776 22.064 60.8776 22.992C60.8776 23.888 61.0856 24.704 61.5016 25.44C61.9176 26.176 62.4776 26.768 63.1816 27.216C63.8856 27.632 64.6536 27.84 65.4856 27.84ZM57.1336 34.992C55.9816 34.992 55.1496 34.816 54.6376 34.464C54.1256 34.112 53.8056 33.664 53.6776 33.12C53.5816 32.544 53.5336 31.952 53.5336 31.344V3.744C53.5336 3.072 53.5976 2.464 53.7256 1.92C53.8536 1.376 54.1576 0.944 54.6376 0.624001C55.1496 0.271999 55.9976 0.0959988 57.1816 0.0959988C58.3336 0.0959988 59.1496 0.271999 59.6296 0.624001C60.1096 0.976 60.3976 1.44 60.4936 2.016C60.5896 2.56 60.6216 3.136 60.5896 3.744V32.832C60.4296 33.568 60.0936 34.112 59.5816 34.464C59.0696 34.816 58.2536 34.992 57.1336 34.992ZM93.5405 34.944C91.9725 34.944 90.5805 34.624 89.3645 33.984C88.1805 33.312 87.1885 32.416 86.3885 31.296C85.6205 30.176 85.0285 28.896 84.6125 27.456C84.2285 26.016 84.0525 24.48 84.0845 22.848C84.0845 21.28 84.2925 19.776 84.7085 18.336C85.1245 16.896 85.7165 15.632 86.4845 14.544C87.2845 13.456 88.2605 12.608 89.4125 12C90.5965 11.36 91.9725 11.04 93.5405 11.04C94.9485 11.04 96.3085 11.36 97.6205 12C98.9645 12.64 100.148 13.52 101.172 14.64C102.196 15.728 102.996 16.992 103.572 18.432C104.18 19.84 104.484 21.328 104.484 22.896C104.484 24.528 104.18 26.08 103.572 27.552C102.996 28.992 102.196 30.272 101.172 31.392C100.148 32.512 98.9805 33.392 97.6685 34.032C96.3565 34.64 94.9805 34.944 93.5405 34.944ZM92.5325 27.84C93.4285 27.84 94.2285 27.632 94.9325 27.216C95.6365 26.768 96.1965 26.176 96.6125 25.44C97.0605 24.704 97.2845 23.888 97.2845 22.992C97.2845 22.064 97.0765 21.248 96.6605 20.544C96.2445 19.808 95.6845 19.232 94.9805 18.816C94.2765 18.4 93.4765 18.192 92.5805 18.192C91.7165 18.192 90.9165 18.4 90.1805 18.816C89.4765 19.232 88.9165 19.808 88.5005 20.544C88.1165 21.248 87.9245 22.064 87.9245 22.992C87.9245 23.888 88.1325 24.704 88.5485 25.44C88.9645 26.176 89.5245 26.768 90.2285 27.216C90.9325 27.632 91.7005 27.84 92.5325 27.84ZM84.1805 34.992C83.0285 34.992 82.1965 34.816 81.6845 34.464C81.1725 34.112 80.8525 33.664 80.7245 33.12C80.6285 32.544 80.5805 31.952 80.5805 31.344V3.744C80.5805 3.072 80.6445 2.464 80.7725 1.92C80.9005 1.376 81.2045 0.944 81.6845 0.624001C82.1965 0.271999 83.0445 0.0959988 84.2285 0.0959988C85.3805 0.0959988 86.1965 0.271999 86.6765 0.624001C87.1565 0.976 87.4445 1.44 87.5405 2.016C87.6365 2.56 87.6685 3.136 87.6365 3.744V32.832C87.4765 33.568 87.1405 34.112 86.6285 34.464C86.1165 34.816 85.3005 34.992 84.1805 34.992ZM116.939 34.992C115.627 34.992 114.459 34.912 113.435 34.752C112.443 34.624 111.579 34.368 110.843 33.984C110.139 33.6 109.563 33.072 109.115 32.4C108.667 31.728 108.331 30.864 108.107 29.808C107.915 28.72 107.819 27.392 107.819 25.824V3.648C107.819 3.008 107.867 2.416 107.963 1.872C108.091 1.328 108.411 0.88 108.923 0.527999C109.435 0.176 110.267 0 111.419 0C112.571 0 113.387 0.176 113.867 0.527999C114.379 0.88 114.699 1.328 114.827 1.872C114.955 2.416 115.019 3.008 115.019 3.648V25.488C115.019 26 115.035 26.432 115.067 26.784C115.131 27.104 115.227 27.36 115.355 27.552C115.515 27.744 115.723 27.872 115.979 27.936C116.235 28 116.571 28.032 116.987 28.032C117.371 28.032 117.755 28.08 118.139 28.176C118.555 28.272 118.907 28.56 119.195 29.04C119.483 29.52 119.627 30.32 119.627 31.44C119.627 32.592 119.483 33.424 119.195 33.936C118.907 34.448 118.555 34.752 118.139 34.848C117.755 34.944 117.355 34.992 116.939 34.992ZM134.065 35.424C131.825 35.424 129.889 35.056 128.257 34.32C126.657 33.584 125.345 32.624 124.321 31.44C123.297 30.224 122.529 28.88 122.017 27.408C121.537 25.936 121.297 24.464 121.297 22.992C121.297 20.592 121.841 18.464 122.929 16.608C124.017 14.752 125.521 13.296 127.441 12.24C129.361 11.152 131.569 10.608 134.065 10.608C135.921 10.608 137.521 10.912 138.865 11.52C140.241 12.096 141.361 12.864 142.225 13.824C143.121 14.752 143.777 15.76 144.193 16.848C144.641 17.936 144.865 18.976 144.865 19.968C144.865 21.728 144.433 23.04 143.569 23.904C142.737 24.736 141.665 25.152 140.353 25.152H128.929C128.993 25.984 129.281 26.688 129.793 27.264C130.337 27.84 131.009 28.288 131.809 28.608C132.609 28.928 133.457 29.088 134.353 29.088C135.121 29.088 135.793 29.056 136.369 28.992C136.945 28.896 137.441 28.784 137.857 28.656C138.273 28.496 138.657 28.352 139.009 28.224C139.361 28.064 139.665 27.936 139.921 27.84C140.209 27.744 140.481 27.68 140.737 27.648C141.217 27.616 141.649 27.76 142.033 28.08C142.449 28.368 142.817 28.816 143.137 29.424C143.361 29.776 143.505 30.112 143.569 30.432C143.665 30.752 143.713 31.072 143.713 31.392C143.713 32.16 143.313 32.848 142.513 33.456C141.745 34.064 140.641 34.544 139.201 34.896C137.793 35.248 136.081 35.424 134.065 35.424ZM128.929 21.216H136.513C137.025 21.216 137.393 21.136 137.617 20.976C137.873 20.784 138.001 20.432 138.001 19.92C138.001 19.344 137.825 18.848 137.473 18.432C137.121 17.984 136.641 17.648 136.033 17.424C135.457 17.168 134.785 17.04 134.017 17.04C133.025 17.04 132.145 17.232 131.377 17.616C130.609 18 130.001 18.512 129.553 19.152C129.137 19.792 128.929 20.48 128.929 21.216Z" fill="black"/>
</svg>
